<svg width="25" height="24" viewBox="0 0 25 24" fill="none" xmlns="http://www.w3.org/2000/svg">
<g id="icons/24x24/localisation">
<g id="Vector">
<path d="M12.7498 9.5C11.9213 9.5 11.2498 10.1716 11.2498 11V11.01C11.2498 11.8384 11.9213 12.51 12.7498 12.51H12.7598C13.5882 12.51 14.2598 11.8384 14.2598 11.01V11C14.2598 10.1716 13.5882 9.5 12.7598 9.5H12.7498Z" fill="#190F14"/>
<path fill-rule="evenodd" clip-rule="evenodd" d="M18.4569 5.29365C15.3049 2.1417 10.1946 2.1417 7.04267 5.29365C3.89073 8.4456 3.89072 13.5559 7.04267 16.7079L12.7498 22.415L18.4569 16.7079C21.6088 13.5559 21.6088 8.4456 18.4569 5.29365ZM8.45689 6.70786C10.8278 4.33696 14.6718 4.33696 17.0427 6.70786C19.4136 9.07876 19.4136 12.9228 17.0427 15.2937L12.7498 19.5865L8.45689 15.2936C6.08598 12.9227 6.08599 9.07876 8.45689 6.70786Z" fill="#190F14"/>
</g>
</g>
</svg>
