<svg width="24" height="24" viewBox="0 0 24 24" fill="none" xmlns="http://www.w3.org/2000/svg">
<g id="social/youtube">
<path id="Vector" fill-rule="evenodd" clip-rule="evenodd" d="M23.4982 6.37365C24 8.24545 24 12.15 24 12.15C24 12.15 24 16.0553 23.4982 17.9263C23.2222 18.9591 22.4093 19.7721 21.3765 20.0485C19.5053 20.55 12 20.55 12 20.55C12 20.55 4.49475 20.55 2.6235 20.0485C1.59075 19.7721 0.77775 18.9591 0.50175 17.9263C0 16.0553 0 12.15 0 12.15C0 12.15 0 8.24545 0.50175 6.37365C0.77775 5.34088 1.59075 4.52793 2.6235 4.25148C4.49475 3.75 12 3.75 12 3.75C12 3.75 19.5053 3.75 21.3765 4.25148C22.4093 4.52793 23.2222 5.34088 23.4982 6.37365ZM9.6 15.75L15.6 12.15L9.6 8.55V15.75Z" fill="white"/>
</g>
</svg>
