<svg width="141" height="32" viewBox="0 0 141 32" fill="none" xmlns="http://www.w3.org/2000/svg">
<g id="logosvg 1" clip-path="url(#clip0_744_9622)">
<path id="Vector" d="M114.357 11.9967V16.0003H101.584V14.8726C101.584 13.1245 101.866 11.9685 103.925 11.9685H114.357V11.9967ZM103.135 9.51562C99.78 9.51562 98.2293 11.2919 98.2293 14.1677V22.2313H101.584V18.5096H114.357V22.2031H117.712V9.51562H103.135ZM121.856 9.51562V11.9967H129.751V22.2031H133.106V11.9967H141V9.51562H121.856ZM76.6889 17.3255C76.6889 19.1017 77.0554 19.7502 79.029 19.7502H93.0416V22.2313H78.2395C74.8844 22.2313 73.3055 20.7088 73.3055 17.8612V9.51562H93.0134V11.9967H76.6607V14.4778H92.3367V16.9166H76.6607V17.3396L76.6889 17.3255ZM52.6673 13.9421C51.6241 13.8576 51.4549 13.491 51.4549 12.8708C51.4549 12.3069 51.765 11.9685 52.5545 11.9685H68.0332V9.51562H52.1598C49.9042 9.51562 48.3535 10.3897 48.3535 12.8989C48.3535 15.4082 49.5095 16.2823 52.1034 16.5078L64.6499 17.551C65.6085 17.6356 65.8904 17.9457 65.8904 18.6506C65.8904 19.2991 65.6085 19.722 64.7344 19.722H48.9738V22.2031H64.9882C67.7512 22.2031 68.9636 21.1035 68.9636 18.5096C68.9636 16.1413 67.864 15.1827 65.1855 14.9571L52.6673 13.9421Z" fill="#190F14"/>
<path id="Vector_2" d="M0.0561523 11.5173C0.0843467 10.3614 0.16893 7.57013 0.225318 5.93486C0.309902 3.82028 0.732817 2.55154 1.60684 1.76209C2.8192 0.690709 4.20072 0.436959 7.55585 0.267793C15.3093 -0.155122 23.2037 -0.0987334 33.0999 0.606126C34.1431 0.690709 34.5097 0.859875 34.7352 1.00085C35.1863 1.31098 35.2145 1.64932 35.3555 3.39737C35.4119 4.41236 35.5529 7.09083 35.6374 8.55693C32.2259 8.38777 26.4461 8.07763 21.3993 8.02124C16.3525 7.96485 11.8132 8.04944 11.2775 8.13402C10.1779 8.27499 9.67043 8.78249 9.52946 9.00804L35.722 13.8575V17.6637L0.0561523 11.5173Z" fill="#190F14"/>
<path id="Vector_3" d="M0.0281945 13.3782L35.6095 20.0179C35.5813 20.9766 35.4967 24.0497 35.4403 25.826C35.3557 27.9406 34.9328 29.2093 34.0588 29.9988C32.8464 31.0701 31.4649 31.3239 28.1098 31.4931C20.3563 31.916 12.4619 31.8596 2.56569 31.1547C1.5225 31.0701 1.15597 30.901 0.930414 30.76C0.479304 30.4499 0.45111 30.1115 0.310138 28.3635C0.225555 27.1793 0.0563887 23.7114 0 22.5836C4.59568 22.8797 11.6443 23.1193 17.3959 23.1193C18.8338 23.1193 22.5837 23.1757 23.5987 23.1757C24.3881 23.1757 25.4313 22.9502 25.967 22.1325L0.0281945 17.6778V13.3782Z" fill="#190F14"/>
</g>
<defs>
<clipPath id="clip0_744_9622">
<rect width="141" height="31.744" fill="white"/>
</clipPath>
</defs>
</svg>
